<?xml version="1.0" encoding="UTF-8"?>
<svg width="1067px" height="532px" viewBox="0 0 1067 532" version="1.1" xmlns="http://www.w3.org/2000/svg" xmlns:xlink="http://www.w3.org/1999/xlink">
    <!-- Generator: Sketch 59.1 (86144) - https://sketch.com -->
    <title>Zephyr_RTOS_logo_2015</title>
    <desc>Created with Sketch.</desc>
    <defs>
        <linearGradient x1="29.6857464%" y1="66.0162602%" x2="109.018287%" y2="66.0162602%" id="linearGradient-1">
            <stop stop-color="#7929D2" offset="0%"></stop>
            <stop stop-color="#0070C5" offset="100%"></stop>
        </linearGradient>
        <linearGradient x1="35.43%" y1="-2.30506667%" x2="34.76%" y2="72.36796%" id="linearGradient-2">
            <stop stop-color="#00AEFF" offset="0%"></stop>
            <stop stop-color="#9454DB" offset="100%"></stop>
        </linearGradient>
        <linearGradient x1="69.8741049%" y1="47.4045094%" x2="45.860439%" y2="15.9185518%" id="linearGradient-3">
            <stop stop-color="#66A9DC" offset="0%"></stop>
            <stop stop-color="#B1E4FA" offset="100%"></stop>
        </linearGradient>
        <linearGradient x1="48.7849354%" y1="1.82223875%" x2="54.7029191%" y2="95.5513202%" id="linearGradient-4">
            <stop stop-color="#00AEFF" offset="0%"></stop>
            <stop stop-color="#9454DB" offset="100%"></stop>
        </linearGradient>
    </defs>
    <g id="Page-1" stroke="none" stroke-width="1" fill="none" fill-rule="evenodd">
        <g id="Zephyr_RTOS_logo_2015" fill-rule="nonzero">
            <polygon id="polygon24" fill="#7929D2" points="240.72 316.42 308.22 350.51 320.11 282.9"></polygon>
            <polygon id="polygon26" fill="#9454DB" points="64.01 295.62 83.64 362.2 148.7 327.32"></polygon>
            <polygon id="polygon28" fill="#AF7FE4" points="240.72 316.42 148.7 327.32 188.85 267.73"></polygon>
            <polygon id="polygon30" fill="#AF7FE4" points="64.01 295.62 0 231.73 74.24 221.98"></polygon>
            <polygon id="polygon32" fill="url(#linearGradient-1)" points="623.05 0 623.05 215.12 320.11 282.9"></polygon>
            <polygon id="polygon34" fill="url(#linearGradient-2)" points="409.38 0 620.11 6.9 320.11 282.9"></polygon>
            <polygon id="polygon36" fill="url(#linearGradient-3)" points="409.38 0 623.05 161.75169 623.05 0"></polygon>
            <polygon id="polygon38" fill="url(#linearGradient-4)" points="623.05 0 529.1 90.63 623.05 215.12"></polygon>
            <g id="g2518" transform="translate(408.000000, 352.000000)" fill="#FFFFFF">
                <polygon id="path40" points="624.52 14.63 624.52 34.31 619.61 34.31 619.61 14.63 612.16 14.63 612.16 10.12 631.98 10.12 631.98 14.63"></polygon>
                <polygon id="path42" points="653.44 34.31 653.44 18.07 647.64 28.17 644.8 28.17 639.06 18.07 639.06 34.32 634.31 34.32 634.31 10.12 639.99 10.12 646.3 21.6 652.66 10.12 658.22 10.12 658.22 34.31"></polygon>
                <polygon id="path44" points="0.39 141.63 0.39 119.07 60.69 34.73 3.24 34.73 3.24 10.23 92.7 10.23 92.7 31.79 31.82 117.17 94.31 117.17 94.31 141.67"></polygon>
                <path d="M131.61,98.23 C132.05,107.09 134.2,113.453333 138.06,117.32 C141.92,121.186667 148.003333,123.103333 156.31,123.07 C160.605341,123.145637 164.885404,122.538057 168.99,121.27 C172.787742,119.953688 176.108409,117.538024 178.53,114.33 L196.77,127.33 C192.893382,132.992677 187.515617,137.463183 181.24,140.24 C174.88,143.093333 166.19,144.52 155.17,144.52 C138.77,144.52 126.533333,140.213333 118.46,131.6 C110.386667,122.986667 106.35,109.986667 106.35,92.6 C106.35,56.9533333 122.306667,39.13 154.22,39.13 C168.4,39.13 179.21,43.13 186.65,51.13 C194.09,59.13 197.81,70.7966667 197.81,86.13 L197.81,98.19 L131.61,98.23 Z M173.49,81.32 C173.49,66.1933333 166.873333,58.63 153.64,58.63 C149.93468,58.4833795 146.250067,59.2491472 142.91,60.86 C140.082577,62.3848058 137.755942,64.6940775 136.21,67.51 C134.53,70.45 133.216667,75.0533333 132.27,81.32 L173.49,81.32 Z" id="path46"></path>
                <path d="M308.06,91.07 C308.06,101.77 306.443333,111.203333 303.21,119.37 C299.976667,127.536667 295.356667,133.773333 289.35,138.08 C283.35,142.38 276.163333,144.533333 267.79,144.54 C256.77,144.54 247.366667,141.086667 239.58,134.18 L239.58,179.1 L215.08,179.1 L215.08,42.01 L237.68,42.01 L237.68,51.79 C241.99972,48.0184948 246.847658,44.8988343 252.07,42.53 C257.543201,40.1932901 263.449972,39.0446566 269.4,39.16 C282,39.16 291.593333,43.59 298.18,52.45 C304.766667,61.31 308.06,74.1833333 308.06,91.07 L308.06,91.07 Z M282.790068,91.45 C282.790068,81.7633333 281.123333,74.2133333 277.79,68.8 C274.456667,63.3866667 269.456667,60.68 262.79,60.68 C258.541775,60.7366881 254.353531,61.6908854 250.5,63.48 C246.528782,65.199827 242.853638,67.5351808 239.61,70.4 L239.61,113.99 C242.501041,116.527362 245.749024,118.626421 249.25,120.22 C252.940063,121.98816 256.978196,122.910576 261.07,122.92 C267.79,122.92 273.093333,120.056667 276.98,114.33 C280.866667,108.603333 282.803333,100.99 282.790068,91.49 L282.790068,91.45 Z" id="path48"></path>
                <path d="M389.99,141.63 L389.99,86.74 C389.99,76.2333333 389.01,69.2666667 387.05,65.84 C385.09,62.4133333 381.61,60.7066667 376.61,60.72 C369.33,60.72 360.563333,65.53 350.31,75.15 L350.31,141.63 L325.79,141.63 L325.79,0.22 L350.3,0.22 L350.3,54.92 C355.079746,50.020489 360.711575,46.0321241 366.92,43.15 C372.327639,40.5961774 378.220216,39.232155 384.2,39.15 C395.34,39.15 403.176667,42.2833333 407.71,48.55 C412.243333,54.8166667 414.506667,63.68 414.500015,75.14 L414.500015,141.62 L389.99,141.63 Z" id="path50"></path>
                <path d="M426.07,155.07 C430.664558,156.776402 435.510292,157.709053 440.41,157.83 C443.926374,157.883479 447.350725,156.705475 450.09,154.5 C452.876667,152.286667 455.76,147.696667 458.74,140.73 L461.3,134.84 L425.3,42.06 L450.75,42.06 L474.3,105.69 L498.42,42.06 L523.31,42.06 L480.48,148.47 C477,157.023333 473.613333,163.356667 470.32,167.47 C467.297316,171.381577 463.324905,174.455549 458.78,176.4 C454.38,178.24 448.856667,179.156667 442.21,179.150036 C434.99236,179.153422 427.806222,178.198409 420.84,176.31 L426.07,155.07 Z" id="path52"></path>
                <path d="M594.81,65.94 C591.643202,64.5436209 588.197895,63.893563 584.74,64.04 C580.199814,64.0229279 575.728633,65.1510414 571.74,67.32 C567.123858,69.9001718 562.889804,73.1110521 559.16,76.86 L559.16,141.63 L534.65,141.63 L534.65,42.01 L559.16,42.01 L559.16,56.25 C563.110588,51.8795747 567.646943,48.0768437 572.64,44.95 C577.493185,41.9658559 583.0932,40.4193502 588.79,40.49 C593.85,40.49 597.456667,41.1566667 599.61,42.49 L594.81,65.94 Z" id="path54"></path>
            </g>
        </g>
    </g>
</svg>